<?xml version="1.0" encoding="iso-8859-1"?>
<svg xmlns="http://www.w3.org/2000/svg" xmlns:xlink="http://www.w3.org/1999/xlink" version="1.1" id="Youtube" x="0px" y="0px" viewBox="0 0 32 24" fill="#80a506" style="enable-background:new 0 0 32 24;" xml:space="preserve">
<g>
	<path d="M25,0H7C3.14,0,0,3.14,0,7v10c0,3.86,3.14,7,7,7h18c3.86,0,7-3.14,7-7V7C32,3.14,28.86,0,25,0z M30,17c0,2.757-2.243,5-5,5   H7c-2.757,0-5-2.243-5-5V7c0-2.757,2.243-5,5-5h18c2.757,0,5,2.243,5,5V17z"/>
	<path d="M21.406,11.086l-9-4c-0.31-0.138-0.667-0.109-0.951,0.075C11.171,7.346,11,7.662,11,8v8c0,0.338,0.171,0.654,0.455,0.838   C11.62,16.945,11.81,17,12,17c0.138,0,0.276-0.028,0.406-0.086l9-4C21.767,12.753,22,12.395,22,12S21.767,11.247,21.406,11.086z    M13,14.461V9.539L18.538,12L13,14.461z"/>
</g>
</svg>
